<svg width="512" height="512" viewBox="0 0 512 512" xmlns="http://www.w3.org/2000/svg">
<defs>
  <clipPath id="cc"><circle cx="256" cy="256" r="224"/></clipPath>
  <linearGradient id="cl" x1="0" y1="0" x2="1" y2="0">
    <stop offset="0%" stop-color="#c8cdd4"/>
    <stop offset="100%" stop-color="#e2e6ea"/>
  </linearGradient>
  <linearGradient id="cr" x1="0" y1="0" x2="1" y2="0">
    <stop offset="0%" stop-color="#8a9099"/>
    <stop offset="60%" stop-color="#b0b8c1"/>
    <stop offset="100%" stop-color="#7a8088"/>
  </linearGradient>
  <linearGradient id="gd" x1="0" y1="0" x2="0" y2="1">
    <stop offset="0%" stop-color="#1a2a1a"/>
    <stop offset="100%" stop-color="#0d150d"/>
  </linearGradient>
  <marker id="ah" viewBox="0 0 8 8" refX="6" refY="4" markerWidth="5" markerHeight="5" orient="auto">
    <path d="M1 1L7 4L1 7" fill="none" stroke="#e05c2a" stroke-width="1.2" stroke-linecap="round" stroke-linejoin="round"/>
  </marker>
</defs>

<!-- Background disc -->
<circle cx="256" cy="256" r="256" fill="#0f1117"/>
<circle cx="256" cy="256" r="224" fill="none" stroke="#e05c2a" stroke-width="5.5"/>

<g clip-path="url(#cc)">

<!-- Underground section -->
<rect x="32" y="362" width="448" height="200" fill="url(#gd)"/>
<line x1="32" y1="378" x2="480" y2="378" stroke="#1f3a1f" stroke-width="1.2" opacity="0.7"/>
<line x1="32" y1="400" x2="480" y2="400" stroke="#162e16" stroke-width="0.8" opacity="0.5"/>
<line x1="32" y1="424" x2="480" y2="424" stroke="#0f250f" stroke-width="0.8" opacity="0.4"/>
<line x1="32" y1="450" x2="480" y2="450" stroke="#0a1e0a" stroke-width="0.6" opacity="0.3"/>

<!-- Rock dots -->
<circle cx="90" cy="392" r="3" fill="#1f3a1f" opacity="0.5"/>
<circle cx="152" cy="414" r="2.5" fill="#1f3a1f" opacity="0.4"/>
<circle cx="348" cy="388" r="3" fill="#1f3a1f" opacity="0.5"/>
<circle cx="408" cy="418" r="2.5" fill="#1f3a1f" opacity="0.4"/>
<circle cx="120" cy="438" r="2.5" fill="#152a15" opacity="0.4"/>
<circle cx="290" cy="432" r="3" fill="#152a15" opacity="0.3"/>
<circle cx="380" cy="446" r="2.5" fill="#152a15" opacity="0.3"/>

<!-- Ground loops — 3 boreholes -->
<!-- Left -->
<line x1="160" y1="362" x2="160" y2="470" stroke="#2563a8" stroke-width="5.5" stroke-linecap="round"/>
<line x1="172" y1="362" x2="172" y2="470" stroke="#3a82f7" stroke-width="3" stroke-linecap="round"/>
<path d="M160 470 Q166 492 172 470" fill="none" stroke="#3a82f7" stroke-width="4" stroke-linecap="round"/>
<!-- Centre -->
<line x1="250" y1="362" x2="250" y2="484" stroke="#2563a8" stroke-width="5.5" stroke-linecap="round"/>
<line x1="262" y1="362" x2="262" y2="484" stroke="#3a82f7" stroke-width="3" stroke-linecap="round"/>
<path d="M250 484 Q256 506 262 484" fill="none" stroke="#3a82f7" stroke-width="4" stroke-linecap="round"/>
<!-- Right -->
<line x1="340" y1="362" x2="340" y2="470" stroke="#2563a8" stroke-width="5.5" stroke-linecap="round"/>
<line x1="352" y1="362" x2="352" y2="470" stroke="#3a82f7" stroke-width="3" stroke-linecap="round"/>
<path d="M340 470 Q346 492 352 470" fill="none" stroke="#3a82f7" stroke-width="4" stroke-linecap="round"/>

<!-- Manifold header -->
<rect x="128" y="355" width="256" height="11" rx="5" fill="#1e3a6e" stroke="#3a82f7" stroke-width="1.2"/>

<!-- Ground surface -->
<rect x="32" y="356" width="448" height="9" fill="#2a3a2a"/>

<!-- Pipes rising into unit -->
<rect x="198" y="282" width="8" height="78" rx="3" fill="#3a82f7" opacity="0.8"/>
<rect x="306" y="282" width="8" height="78" rx="3" fill="#3a82f7" opacity="0.8"/>

<!-- Thermal arrows -->
<path d="M234 342 L234 318" fill="none" stroke="#e05c2a" stroke-width="1.8" opacity="0.8" marker-end="url(#ah)"/>
<path d="M278" y1="345" fill="none"/>
<path d="M278 340 L278 316" fill="none" stroke="#e05c2a" stroke-width="1.8" opacity="0.8" marker-end="url(#ah)"/>

<!-- ── F1245 CABINET ── -->
<!-- Plinth -->
<rect x="162" y="342" width="188" height="17" rx="2.5" fill="#1e2228"/>
<!-- Left panel -->
<rect x="164" y="134" width="114" height="212" rx="3" fill="url(#cl)" stroke="#b8bfc7" stroke-width="0.8"/>
<!-- Right panel -->
<rect x="278" y="134" width="72" height="212" rx="3" fill="url(#cr)" stroke="#7a8088" stroke-width="0.8"/>
<!-- Centre trim -->
<rect x="275" y="134" width="5" height="212" fill="#9aa0a8"/>
<!-- Top cap -->
<rect x="162" y="130" width="188" height="8" rx="2.5" fill="#b0b5bc" stroke="#9aa0a8" stroke-width="0.8"/>

<!-- NIBE diamond on left panel -->
<g transform="translate(184,154)">
  <polygon points="8,0 16,8 8,16 0,8" fill="none" stroke="#6a7280" stroke-width="1"/>
  <polygon points="8,3 13,8 8,13 3,8" fill="#6a7280"/>
</g>
<text x="206" y="168" font-family="Arial,sans-serif" font-size="10" font-weight="700" fill="#4a5260" letter-spacing="2">NIBE</text>

<!-- Control display — right panel top -->
<rect x="284" y="146" width="56" height="22" rx="3" fill="#0d0f14" stroke="#444a54" stroke-width="0.8"/>
<!-- Indicator ellipses -->
<ellipse cx="297" cy="157" rx="4.5" ry="5.5" fill="#2a7a3a" opacity="0.9"/>
<ellipse cx="312" cy="157" rx="4.5" ry="5.5" fill="#3a6ab8" opacity="0.9"/>
<ellipse cx="327" cy="157" rx="4.5" ry="5.5" fill="#8a3ab8" opacity="0.9"/>
<!-- Status bar -->
<rect x="288" y="164" width="46" height="2.5" rx="1.2" fill="#2ec27e"/>

<!-- Panel reflection -->
<rect x="284" y="152" width="15" height="186" fill="#ffffff" opacity="0.05" rx="1.5"/>

<!-- Bottom vent -->
<rect x="164" y="332" width="186" height="13" rx="1.5" fill="#c0c5cc" stroke="#aab0b8" stroke-width="0.6"/>
<line x1="172" y1="335" x2="342" y2="335" stroke="#aab0b8" stroke-width="0.6"/>
<line x1="172" y1="339" x2="342" y2="339" stroke="#aab0b8" stroke-width="0.6"/>
<line x1="172" y1="343" x2="342" y2="343" stroke="#aab0b8" stroke-width="0.6"/>

<!-- ── AI BADGE ── -->
<circle cx="390" cy="106" r="42" fill="#0f1117" stroke="#e05c2a" stroke-width="3"/>
<circle cx="390" cy="106" r="33" fill="none" stroke="#1a1f2e" stroke-width="0.8"/>
<!-- Circuit lines -->
<line x1="368" y1="106" x2="412" y2="106" stroke="#2a3050" stroke-width="0.8" opacity="0.8"/>
<line x1="390" y1="84" x2="390" y2="128" stroke="#2a3050" stroke-width="0.8" opacity="0.8"/>
<circle cx="368" cy="106" r="2" fill="#e05c2a" opacity="0.8"/>
<circle cx="412" cy="106" r="2" fill="#e05c2a" opacity="0.8"/>
<circle cx="390" cy="84" r="2" fill="#e05c2a" opacity="0.8"/>
<circle cx="390" cy="128" r="2" fill="#e05c2a" opacity="0.8"/>
<!-- AI label -->
<text x="390" y="102" font-family="Arial,sans-serif" font-size="14" font-weight="700" fill="#e05c2a" text-anchor="middle">AI</text>
<text x="390" y="116" font-family="Arial,sans-serif" font-size="7" fill="#7b87a8" text-anchor="middle" letter-spacing="1.2">POWERED</text>

<!-- Bottom label -->
<text x="256" y="466" font-family="Arial,sans-serif" font-size="13" font-weight="700" fill="#e05c2a" text-anchor="middle" letter-spacing="2.5">NIBE SMART CONTROL</text>

</g>
</svg>
